<?xml version="1.0" encoding="UTF-8"?>
<svg id="Calque_1" xmlns="http://www.w3.org/2000/svg" version="1.1" viewBox="0 0 422 105">
  <!-- Generator: Adobe Illustrator 30.1.0, SVG Export Plug-In . SVG Version: 2.1.1 Build 136)  -->
  <defs>
    <style>
      .st0 {
        fill: #fff;
      }
    </style>
  </defs>
  <path class="st0" d="M357.77,57.63h12.82V0h-13.93v17.09c0,1.56.08,2.15.44,4.96h-.37c-2.58-5.33-5.77-7.41-11.33-7.41-3.85,0-7.27,1.27-10.01,3.71-3.94,3.41-6.23,10.37-6.23,18.53,0,7.1,2,13.93,5.19,17.34,2.89,3.1,6.89,4.89,11.12,4.89,5.77,0,9.41-2.44,12.53-8.37h.44c-.52,2.89-.67,4.31-.67,5.56v1.33ZM349.69,47.55c-4.67,0-7.2-3.48-7.2-9.72h.02c0-6.45,3.02-10.08,7.78-10.08s7.64,3.48,7.64,9.27c0,6.23-3.56,10.53-8.23,10.53ZM218.88,11.8c5.41,0,8.45-1.77,8.45-4.81,0-3.41-2.67-4.96-8.45-4.96-5.27,0-8.16,1.77-8.16,4.89s2.75,4.89,8.16,4.89ZM212.05,28.58h-19.03c.15,4.08.23,6.68.23,11.41,0,3.41.29,5.33,1.12,6.6.75,1.19,2.29,1.92,4.08,1.92,2.89,0,5.27-1.25,7.49-4.08v9.64c-3.63,3.64-7.12,5.04-12.45,5.04s-9.12-1.71-11.12-4.81c-1.77-2.81-2.44-6.6-2.44-14.08,0-4.23.08-6.89.37-11.27h-6.89v-8.75c5.85-1.33,10.53-6.68,12.53-14.24h7.12v10.53h23.3v.02s9.65,0,9.65,0v41.14h-13.93v-29.05ZM156.22,49.63c-6.66,0-10.52-2.96-10.89-8.6v.02h26.26c.37-2.31.44-3.48.44-5.56,0-13.35-6.75-20.84-18.76-20.84-13.12,0-20.76,7.56-20.76,21.72s7.85,22.76,20.82,22.76c6.97,0,11.93-2,16.38-6.68v-9.27h-.52c-2.96,4.45-6.97,6.45-12.97,6.45ZM153.93,25.23c5.18,0,7.85,2,8.81,6.6h-17.34c.23-4.31,3.35-6.6,8.52-6.6ZM124.9,62.38c2.89-3.12,3.64-6.37,3.64-15.49h-.01v-30.75h-12.89l.44,6.81h-.44c-1.85-5.62-5.71-8.29-12.01-8.29-4.08,0-7.79,1.33-10.68,3.85-3.56,3.19-5.56,8.68-5.56,15.28,0,6.08,1.7,11.79,4.45,15.05,2.96,3.56,7.35,5.56,12.16,5.56,3.35,0,6.6-.96,8.6-2.52,1.48-1.12,2.29-2.44,3.48-5.41h.6c-.2.92-.26,1.27-.33,1.67-.03.18-.06.37-.11.62-.24,1.87-.42,3.03-.52,3.48-.89,4.14-4.52,6.29-9.85,6.29s-9.93-1.48-14.45-4.67v9.93c4.67,3.04,9.04,4.16,16.01,4.16,8.16,0,14.22-1.92,17.49-5.56ZM108.07,44.89c-4.44,0-7.25-3.48-7.26-9.04,0-5.56,2.74-8.75,7.49-8.75,1.93,0,4,.82,5.26,2.08,1.41,1.41,2,3.33,2,6.29,0,5.85-3.04,9.41-7.49,9.41ZM326.61,6.99c0,3.04-3.04,4.81-8.45,4.81s-8.16-1.77-8.16-4.89,2.89-4.89,8.16-4.89c5.77,0,8.45,1.56,8.45,4.96ZM311.33,16.49h13.93v41.14h-13.93V16.49ZM245.86,16.13h-12.97v41.52h13.93v-19.49c0-3.33.21-4.96.89-6.45,1.12-2.37,3.48-3.93,6.16-3.93,1.93,0,3.77.96,4.52,2.29.66,1.25.81,2.52.81,7.33v20.24h13.93v-25.34c0-8.29-.23-9.41-2.15-12.45-2.06-3.27-6.07-5.19-10.82-5.19-4.22,0-7.77,1.48-10.45,4.29-2.14,2.22-3.04,4.16-3.85,8.45h-.52c.44-2.83.52-3.93.52-5.64v-5.64ZM305.97,30.73c-3.56-3.19-7.2-4.6-11.93-4.6-3.79,0-6,1.19-6,3.19,0,1.85,1.48,2.6,6.29,3.33,9.12,1.41,13.12,5.12,13.12,12.08,0,8.6-6.6,14.37-16.53,14.37-4.81,0-8.75-1.04-14.01-3.79v-11.27c4.08,3.48,7.85,4.96,12.45,4.96,3.85,0,5.93-1.12,5.93-3.19,0-1.04-.6-1.92-1.48-2.37-.69-.35-3.16-.92-7.41-1.71-7.2-1.41-10.97-5.79-10.97-12.68,0-8.81,6.6-14.45,17.05-14.45,5.19,0,9.26,1.19,13.49,3.93v12.19ZM387.3,41.03c.37,5.64,4.23,8.6,10.89,8.6,6,0,10.01-2,12.97-6.45h.52v9.27c-4.45,4.67-9.41,6.68-16.38,6.68-12.97,0-20.82-8.6-20.82-22.76s7.64-21.72,20.76-21.72c12.01,0,18.76,7.49,18.76,20.84,0,2.08-.08,3.25-.44,5.56h-26.24v-.02ZM404.71,31.83c-.96-4.6-3.64-6.6-8.81-6.6s-8.3,2.29-8.52,6.6h17.34ZM39.85,5.29l-.24,4.33c-.03,1.54-2.2,2.11-2.99.82l-2.4-3.6c-.94-1.42-.57-3.33.85-4.29,2.02-1.45,4.98.28,4.78,2.73ZM75.54,3.16c3.72-2.1,8.47-1.12,11.06,2.28.66.87.53,2.08-.31,2.78l-31.07,26.12,21.26,1.1c1.05.05,1.89.92,1.91,1.97.13,5.16-1.75,10.07-5.31,13.82-3.56,3.74-8.35,5.88-13.49,6h-.53c-.86,0-1.71-.07-2.55-.18,1.63,4.12,2.84,8.12,3.6,11.94.22,1.09-.5,2.16-1.59,2.38-.12.04-.26.04-.39.04-.94,0-1.79-.68-1.98-1.64-.88-4.41-2.41-9.11-4.55-13.98-6.17-2.46-10.61-7.91-11.53-14.76-2.09-.96-4.28-3.38-5.27-5.73-.82-1.95-1.98-6.68,3.37-10.79-4.3-6.48-13.02-8.29-19.53-4.03-.13.11-5.08,3.61-11.31,4.76-1.02.19-1.16,1.12-1.17,1.41-.01.28.01,1.23,1.02,1.53.93.27,1.72.24,2.46-.07.74-.31,1.59-.16,2.18.39.59.55.79,1.41.51,2.16-.58,1.58.08,6.27,2.18,9.5l4.79,7.38c3.19,4.89,1.83,11.5-3.02,14.73l-13.17,8.79c-.35.23-.73.34-1.12.34-.66,0-1.29-.32-1.68-.91-.62-.93-.36-2.19.57-2.81l13.17-8.79c3-2,3.84-6.1,1.87-9.14l-4.79-7.38c-1.86-2.87-2.99-6.81-3.03-9.98-.67-.03-1.36-.15-2.06-.35-2.48-.73-4.05-2.99-3.92-5.62.13-2.62,1.94-4.7,4.47-5.18,5.25-.97,9.55-3.96,9.76-4.1h0c8.47-5.56,19.76-3.18,25.25,5.23L75.54,3.16ZM48.06,36.73c-.27-.8-.01-1.66.62-2.2h0S81.88,6.65,81.88,6.65c-1.33-.7-2.99-.73-4.36.05l-35.79,20.28c-2.65,1.62-3.86,3.49-3.56,5.52.38,2.53,2.8,4.57,3.65,4.89h.13c.43,0,.85.14,1.2.39.48.37.78.92.82,1.53.35,6,4.11,10.81,9.44,12.83.22.03.43.11.63.22,1.7.55,3.53.85,5.45.81,4.07-.09,7.86-1.78,10.67-4.74,2.37-2.51,3.81-5.66,4.13-9.06l-24.42-1.26c-.83-.04-1.55-.58-1.82-1.38ZM27,24.2c1.78,0,3.25,1.31,3.53,3.01h.01c-1.95.04-3.53,1.64-3.53,3.61,0,.2.03.41.05.59h-.07c-1.99,0-3.6-1.61-3.6-3.61s1.62-3.61,3.6-3.61ZM53.22,7.85c0,1.76-1.42,3.19-3.18,3.19s-3.18-1.43-3.18-3.19,1.42-3.19,3.18-3.19,3.18,1.43,3.18,3.19ZM43.57,15.06c1.01,0,1.83-.82,1.83-1.84s-.82-1.84-1.83-1.84-1.83.82-1.83,1.84.82,1.84,1.83,1.84Z"/>
</svg>