<?xml version="1.0" encoding="UTF-8"?>
<svg xmlns="http://www.w3.org/2000/svg" xmlns:xlink="http://www.w3.org/1999/xlink" viewBox="0 0 368.06 91.05">
  <defs>
    <style>
      .cls-1 {
        fill: #1d1d1b;
        font-family: UniversLTStd, 'Univers LT Std';
      }

      .cls-2 {
        letter-spacing: .03em;
      }

      .cls-2, .cls-3 {
        font-size: 15px;
      }

      .cls-4 {
        fill: #060b0b;
      }

      .cls-4, .cls-5, .cls-6 {
        stroke-width: 0px;
      }

      .cls-5 {
        fill: url(#Dégradé_sans_nom_7);
        mix-blend-mode: multiply;
        opacity: .5;
      }

      .cls-7 {
        fill: none;
        stroke: #ffed00;
        stroke-miterlimit: 10;
        stroke-width: 14px;
      }

      .cls-6 {
        fill: #ffed00;
      }

      .cls-8 {
        isolation: isolate;
      }

      .cls-9 {
        font-size: 13.46px;
        letter-spacing: .04em;
      }

      .cls-3 {
        letter-spacing: .05em;
      }
    </style>
    <linearGradient id="Dégradé_sans_nom_7" data-name="Dégradé sans nom 7" x1="260.6" y1="45.6" x2="255.78" y2="35.55" gradientTransform="translate(-9.23 19.86) rotate(-3.99) scale(.99)" gradientUnits="userSpaceOnUse">
      <stop offset="0" stop-color="#010101"/>
      <stop offset="1" stop-color="#fff"/>
    </linearGradient>
  </defs>
  <g class="cls-8">
    <g id="Calque_2" data-name="Calque 2">
      <g id="Calque_1-2" data-name="Calque 1">
        <ellipse class="cls-7" cx="234.51" cy="46.52" rx="17.46" ry="17.23" transform="translate(-.78 4.1) rotate(-1)"/>
        <path class="cls-5" d="M244.84,44.88c.41,2.94-.23,5.78-2.02,7.9l11.37,7.56c3.59-4.79,5.37-10.91,4.49-17.27-.89-6.46-4.36-11.95-9.25-15.61-1.5-1.12-3.13-2.07-4.85-2.82l-8.87,11.55c4.03.35,8.46,3.87,9.13,8.69Z"/>
        <path class="cls-6" d="M282.53,22.57c6.28-.11,12.6,2.14,17.46,6.78,9.73,9.27,9.99,24.63.6,34.23-9.4,9.61-24.95,9.88-34.68.61l9.74-9.95c4.17,3.97,10.84,3.86,14.86-.26,4.03-4.12,3.91-10.7-.26-14.67-4.17-3.97-10.84-3.86-14.86.26l-.02.02-24.46,24.83-10.05-9.64,24.45-24.82c4.7-4.8,10.93-7.26,17.21-7.37Z"/>
        <g>
          <path class="cls-4" d="M24.99,22.8c13.49,0,23.85,9.69,23.85,25.84v3.52h-31.16c.95,2.94,4.28,5.79,10.07,5.79,3.9,0,8.08-1.42,10.35-3.23l7.03,10.54c-4.56,3.9-12.73,5.7-19.57,5.7-14.35,0-25.56-9.02-25.56-24.13,0-13.3,10.17-24.04,24.99-24.04ZM17.48,41.33h15.1c-.47-2-2.09-5.51-7.6-5.51-5.23,0-6.94,3.42-7.51,5.51Z"/>
          <path class="cls-4" d="M54.72,87.31V23.94h17.1v4.84c3.71-4.37,8.17-5.98,12.92-5.98,11.4,0,20.14,8.36,20.14,24.04s-8.74,24.13-20.14,24.13c-4.75,0-9.12-1.61-12.92-5.98v22.33h-17.1ZM78.85,37.91c-2.19,0-5.42,1.14-7.03,3.13v11.68c1.52,1.9,4.85,3.14,7.03,3.14,4.56,0,8.55-3.23,8.55-9.03s-3.99-8.93-8.55-8.93Z"/>
          <path class="cls-4" d="M114.19,52.44c3.61,2.85,11.4,5.79,16.53,5.79,3.52,0,4.56-.95,4.56-2.19,0-1.52-2.09-2.09-6.46-2.66-7.69-1.04-19.57-2.47-19.57-14.92,0-8.26,7.22-15.67,20.52-15.67,7.69,0,14.54,2.38,19.85,5.89l-6.27,11.12c-2.85-2.38-8.17-4.75-13.49-4.75-2.47,0-4.27.67-4.27,2s1.33,1.9,5.89,2.57c7.7,1.14,20.14,2.75,20.14,15.58,0,9.12-8.17,15.77-21.76,15.77-8.46,0-17.58-2.94-22.52-7.03l6.84-11.5Z"/>
          <path class="cls-4" d="M156.75,9.59c0-5.32,4.27-9.59,9.6-9.59s9.6,4.28,9.6,9.59-4.28,9.6-9.6,9.6-9.6-4.28-9.6-9.6ZM157.79,23.94h17.1v45.89h-17.1V23.94Z"/>
          <path class="cls-4" d="M184.39,6.46h17.1v63.37h-17.1V6.46Z"/>
          <path class="cls-4" d="M346.69,44.46c0-4.75-2.57-6.55-6.65-6.55s-5.89,1.99-7.31,3.61v28.31h-17.1V23.94h17.1v5.23c2.66-3.04,7.69-6.37,15.77-6.37,10.64,0,15.3,6.46,15.3,14.44v32.58h-17.1v-25.37Z"/>
        </g>
      </g>
      <g id="Calque_2-2" data-name="Calque 2">
        <text class="cls-1" transform="translate(91.56 87.3)"><tspan class="cls-3" x="0" y="0">le magazine scientifique d’actualité</tspan><tspan class="cls-9" x="272.76" y="0"> </tspan></text>
      </g>
    </g>
  </g>
</svg>